<svg xmlns="http://www.w3.org/2000/svg" xmlns:xlink="http://www.w3.org/1999/xlink" width="1080" zoomAndPan="magnify" viewBox="0 0 810 809.999993" height="1080" preserveAspectRatio="xMidYMid meet" version="1.0"><defs><clipPath id="d4329476f3"><path d="M 75.070312 395 L 320 395 L 320 577 L 75.070312 577 Z M 75.070312 395 " clip-rule="nonzero"/></clipPath><clipPath id="36c8699ee7"><path d="M 425 196.320312 L 576 196.320312 L 576 347 L 425 347 Z M 425 196.320312 " clip-rule="nonzero"/></clipPath></defs><path fill="#045530" d="M 630.796875 536.332031 L 341.238281 246.769531 C 337.441406 242.976562 333.449219 239.707031 329.359375 236.96875 C 324.90625 234 320.253906 231.527344 315.535156 229.578125 L 315.46875 229.578125 C 310.71875 227.597656 305.703125 226.113281 300.554688 225.058594 C 295.472656 224.035156 290.328125 223.542969 285.179688 223.542969 C 280.03125 223.542969 274.886719 224.035156 269.769531 225.058594 C 264.625 226.082031 259.640625 227.597656 254.859375 229.578125 L 254.792969 229.578125 C 250.074219 231.527344 245.488281 233.96875 241.132812 236.871094 C 236.910156 239.707031 232.851562 243.007812 229.054688 246.800781 L 226.910156 248.945312 C 224.105469 251.984375 221.566406 255.25 219.289062 258.648438 C 216.320312 263.101562 213.84375 267.753906 211.898438 272.472656 C 209.953125 277.191406 208.433594 282.238281 207.378906 287.453125 C 206.355469 292.53125 205.859375 297.679688 205.859375 302.828125 C 205.859375 307.941406 206.355469 313.089844 207.378906 318.167969 C 208.433594 323.382812 209.917969 328.429688 211.867188 333.117188 C 213.78125 337.769531 216.222656 342.355469 219.15625 346.777344 C 221.996094 351.03125 225.261719 355.058594 228.925781 358.753906 L 231.664062 361.492188 L 349.320312 479.117188 L 413.824219 543.621094 C 483.773438 613.570312 564.875 599.582031 638.125 543.621094 Z M 630.796875 536.332031 " fill-opacity="1" fill-rule="evenodd"/><path fill="#045530" d="M 678.707031 342.320312 C 667.554688 337.703125 655.644531 335.394531 643.796875 335.394531 C 631.789062 335.394531 619.878906 337.703125 608.789062 342.289062 C 598.167969 346.675781 588.136719 353.277344 579.328125 362.085938 L 579.261719 362.085938 L 569.03125 372.3125 L 565.996094 375.347656 L 569.066406 378.417969 L 691.90625 501.289062 L 694.972656 504.359375 L 708.238281 491.09375 L 708.238281 491.027344 C 712.59375 486.671875 716.351562 482.085938 719.519531 477.335938 C 722.917969 472.222656 725.757812 466.910156 728 461.464844 C 730.242188 456.019531 731.992188 450.246094 733.179688 444.242188 C 734.335938 438.402344 734.929688 432.464844 734.929688 426.523438 C 734.929688 420.617188 734.335938 414.644531 733.179688 408.804688 C 731.992188 402.800781 730.242188 397.027344 728 391.582031 C 725.757812 386.136719 722.917969 380.828125 719.519531 375.710938 C 716.351562 370.960938 712.59375 366.375 708.238281 362.019531 C 703.882812 357.664062 699.296875 353.902344 694.542969 350.734375 C 689.460938 347.402344 684.117188 344.566406 678.707031 342.320312 Z M 678.707031 342.320312 " fill-opacity="1" fill-rule="evenodd"/><g clip-path="url(#d4329476f3)"><path fill="#045530" d="M 180.71875 401.050781 C 171.449219 397.226562 161.449219 395.277344 151.386719 395.277344 C 141.390625 395.277344 131.425781 397.191406 122.121094 401.050781 L 122.054688 401.050781 C 113.179688 404.714844 104.796875 410.257812 97.40625 417.648438 L 97.339844 417.648438 C 93.84375 421.144531 90.710938 425.007812 88.003906 429.097656 C 85.132812 433.386719 82.757812 437.875 80.878906 442.394531 L 80.878906 442.460938 C 78.964844 447.046875 77.511719 451.863281 76.554688 456.8125 C 75.566406 461.695312 75.070312 466.679688 75.070312 471.628906 C 75.070312 476.578125 75.566406 481.558594 76.554688 486.441406 C 77.578125 491.492188 79.03125 496.339844 80.878906 500.859375 C 82.757812 505.414062 85.132812 509.867188 88.003906 514.15625 C 90.644531 518.117188 93.777344 521.945312 97.441406 525.605469 L 118.128906 546.292969 C 122.582031 550.75 127.5 554.574219 132.644531 557.777344 C 138.617188 561.503906 144.917969 564.539062 151.253906 566.917969 C 158.25 569.554688 165.410156 571.46875 172.304688 572.757812 C 215.460938 580.808594 266.273438 577.769531 319.394531 531.578125 L 300.058594 512.242188 L 205.367188 417.679688 C 197.976562 410.289062 189.5625 404.746094 180.71875 401.050781 Z M 180.71875 401.050781 " fill-opacity="1" fill-rule="evenodd"/></g><g clip-path="url(#36c8699ee7)"><path fill="#045530" d="M 526.929688 202.359375 C 517.363281 198.398438 507.101562 196.417969 496.773438 196.417969 C 486.445312 196.417969 476.152344 198.398438 466.617188 202.359375 C 457.445312 206.152344 448.800781 211.828125 441.246094 219.417969 L 428.078125 232.582031 L 425.671875 234.992188 L 428.046875 237.332031 L 428.113281 237.332031 L 534.453125 343.675781 L 536.828125 346.050781 L 539.207031 343.675781 L 552.371094 330.507812 L 552.4375 330.507812 C 556 326.945312 559.234375 322.953125 562.101562 318.664062 C 565.074219 314.210938 567.515625 309.65625 569.394531 305.070312 C 571.34375 300.386719 572.828125 295.402344 573.847656 290.222656 C 574.839844 285.175781 575.367188 280.0625 575.367188 274.945312 C 575.367188 269.832031 574.871094 264.71875 573.847656 259.671875 C 572.828125 254.523438 571.34375 249.539062 569.394531 244.855469 C 567.449219 240.136719 565.007812 235.550781 562.136719 231.261719 L 562.070312 231.195312 C 559.332031 227.105469 556.097656 223.144531 552.335938 219.382812 C 544.75 211.828125 536.070312 206.152344 526.929688 202.359375 Z M 526.929688 202.359375 " fill-opacity="1" fill-rule="evenodd"/></g></svg>