<svg xmlns="http://www.w3.org/2000/svg" xmlns:xlink="http://www.w3.org/1999/xlink" width="200" height="200" zoomAndPan="magnify" viewBox="0 0 810 809.999993" preserveAspectRatio="xMidYMid meet" version="1.2"><defs><clipPath id="161ebd4150"><path d="M 70.523438 332.164062 L 315.773438 332.164062 L 315.773438 470.914062 L 70.523438 470.914062 Z M 70.523438 332.164062 "/></clipPath></defs><g id="555a687e19"><g clip-rule="nonzero" clip-path="url(#161ebd4150)"><path style=" stroke:none;fill-rule:nonzero;fill:#ffffff;fill-opacity:1;" d="M 142.28125 338.730469 C 142.28125 341.96875 145.519531 345.253906 148.804688 345.253906 L 193.148438 345.253906 C 194.472656 345.890625 195.109375 347.214844 195.109375 349.179688 C 195.109375 351.140625 193.785156 353.101562 191.1875 353.101562 L 187.261719 353.101562 C 184.023438 353.101562 181.375 355.703125 181.375 359.625 C 181.375 362.863281 183.976562 366.148438 187.261719 366.148438 L 238.8125 366.148438 C 242.050781 366.148438 245.335938 362.914062 245.335938 359.625 C 245.335938 355.703125 242.101562 353.101562 238.8125 353.101562 L 213.355469 353.101562 C 210.757812 353.101562 208.792969 351.140625 208.792969 349.179688 C 208.792969 347.214844 210.117188 345.941406 211.394531 345.253906 L 218.554688 345.253906 C 222.480469 345.253906 225.078125 342.015625 225.078125 338.730469 C 225.078125 334.804688 222.480469 332.207031 218.554688 332.207031 L 148.804688 332.207031 C 145.519531 332.207031 142.28125 334.804688 142.28125 338.730469 Z M 172.9375 359.625 C 172.9375 355.703125 169.703125 353.101562 166.414062 353.101562 L 129.234375 353.101562 C 125.3125 353.101562 122.710938 355.703125 122.710938 359.625 C 122.710938 362.863281 125.3125 366.148438 129.234375 366.148438 L 138.996094 366.148438 C 140.957031 366.789062 141.597656 368.113281 141.597656 370.074219 C 141.597656 372.035156 140.273438 373.996094 137.671875 373.996094 L 121.386719 373.996094 C 117.464844 373.996094 114.863281 376.597656 114.863281 380.519531 C 114.863281 383.757812 117.464844 387.042969 121.386719 387.042969 L 165.089844 387.042969 C 167.054688 387.683594 167.691406 389.007812 167.691406 390.96875 C 167.691406 392.929688 165.730469 394.894531 163.765625 394.894531 L 152.679688 394.894531 C 149.445312 394.894531 146.15625 397.492188 146.15625 401.417969 C 146.15625 404.652344 149.394531 407.941406 152.679688 407.941406 L 187.898438 407.941406 C 189.863281 408.578125 190.5 409.902344 190.5 411.863281 C 190.5 413.824219 188.535156 415.789062 186.574219 415.789062 L 77.683594 415.789062 C 74.445312 415.789062 71.160156 418.386719 71.160156 422.3125 C 71.160156 425.550781 74.398438 428.835938 77.683594 428.835938 L 108.339844 428.835938 C 110.941406 428.835938 112.902344 430.796875 112.902344 432.757812 C 112.902344 434.082031 111.578125 435.996094 110.300781 436.683594 L 77.046875 436.683594 C 73.808594 436.683594 70.523438 439.28125 70.523438 443.207031 C 70.523438 446.445312 73.761719 449.730469 77.046875 449.730469 L 182.699219 449.730469 C 185.9375 449.730469 189.222656 446.492188 189.222656 443.207031 C 189.222656 439.28125 185.988281 436.683594 182.699219 436.683594 L 141.597656 436.683594 C 139.632812 436.046875 138.996094 434.082031 138.996094 432.757812 C 138.996094 430.796875 140.957031 428.835938 142.921875 428.835938 L 217.28125 428.835938 C 221.203125 428.835938 223.804688 425.597656 223.804688 422.3125 C 223.804688 418.386719 221.203125 415.789062 217.28125 415.789062 L 213.355469 415.789062 C 210.757812 415.789062 208.792969 413.824219 208.792969 411.863281 C 208.792969 409.902344 210.117188 408.625 211.394531 407.941406 L 273.980469 407.941406 C 277.21875 407.941406 280.503906 404.703125 280.503906 401.417969 C 280.503906 397.492188 277.269531 394.894531 273.980469 394.894531 L 192.511719 394.894531 C 189.910156 394.894531 188.585938 392.929688 188.585938 390.96875 C 188.585938 389.007812 189.222656 387.730469 191.1875 387.042969 L 208.15625 387.042969 C 212.082031 387.042969 214.679688 383.808594 214.679688 380.519531 C 214.679688 376.597656 212.082031 373.996094 208.15625 373.996094 L 155.332031 373.996094 C 153.367188 373.996094 151.40625 372.035156 151.40625 370.074219 C 151.40625 368.113281 152.042969 366.835938 154.003906 366.148438 L 166.414062 366.148438 C 169.652344 366.101562 172.9375 362.863281 172.9375 359.625 Z M 148.804688 463.957031 C 148.804688 467.191406 151.40625 470.480469 154.691406 470.480469 L 301.449219 470.480469 C 305.375 470.480469 307.972656 467.242188 307.972656 463.957031 C 307.972656 460.03125 305.375 457.429688 301.449219 457.429688 L 245.335938 457.429688 C 243.375 457.429688 241.414062 455.46875 241.414062 453.507812 C 241.414062 451.546875 242.738281 450.269531 244.011719 449.582031 L 309.886719 449.582031 C 313.125 449.582031 315.773438 446.347656 315.773438 443.058594 C 315.773438 439.136719 313.171875 436.535156 309.886719 436.535156 L 279.230469 436.535156 C 277.90625 435.898438 276.628906 433.9375 276.628906 432.613281 C 276.628906 430.648438 278.59375 428.6875 280.554688 428.6875 L 301.449219 428.6875 C 305.375 428.6875 307.972656 425.449219 307.972656 422.164062 C 307.972656 418.242188 305.375 415.640625 301.449219 415.640625 L 238.8125 415.640625 C 235.574219 415.640625 232.289062 418.242188 232.289062 422.164062 C 232.289062 425.402344 235.527344 428.6875 238.8125 428.6875 L 253.183594 428.6875 C 255.785156 428.6875 257.746094 430.648438 257.746094 432.613281 C 257.746094 433.9375 256.421875 435.851562 255.148438 436.535156 L 204.234375 436.535156 C 200.308594 436.535156 197.710938 439.136719 197.710938 443.058594 C 197.710938 446.296875 200.308594 449.582031 204.234375 449.582031 L 217.917969 449.582031 C 219.878906 450.222656 220.519531 451.546875 220.519531 453.507812 C 220.519531 455.46875 218.554688 457.429688 216.59375 457.429688 L 154.644531 457.429688 C 151.40625 457.429688 148.804688 460.03125 148.804688 463.957031 Z M 82.933594 463.957031 C 82.933594 467.191406 86.167969 470.480469 89.457031 470.480469 L 133.796875 470.480469 C 137.035156 470.480469 140.320312 467.242188 140.320312 463.957031 C 140.320312 460.03125 137.082031 457.429688 133.796875 457.429688 L 89.457031 457.429688 C 86.167969 457.429688 82.933594 460.03125 82.933594 463.957031 Z M 85.53125 401.367188 C 85.53125 404.605469 88.769531 407.890625 92.054688 407.890625 L 131.199219 407.890625 C 135.121094 407.890625 137.722656 404.652344 137.722656 401.367188 C 137.722656 397.445312 135.121094 394.84375 131.199219 394.84375 L 92.054688 394.84375 C 88.769531 394.84375 85.53125 397.445312 85.53125 401.367188 Z M 223.167969 380.472656 C 223.167969 383.710938 226.402344 386.996094 229.691406 386.996094 L 246.613281 386.996094 C 249.847656 386.996094 253.136719 383.757812 253.136719 380.472656 C 253.136719 376.546875 249.898438 373.949219 246.613281 373.949219 L 229.640625 373.949219 C 226.402344 373.949219 223.167969 376.546875 223.167969 380.472656 Z M 223.167969 380.472656 "/></g><g style="fill:#ffffff;fill-opacity:1;"><g transform="translate(332.186324, 451.093123)"><path style="stroke:none" d="M 81.125 -54.390625 L 63.21875 -54.390625 C 62.539062 -58.992188 60.578125 -62.609375 57.328125 -65.234375 C 54.085938 -67.867188 50.046875 -69.1875 45.203125 -69.1875 C 38.710938 -69.1875 33.515625 -66.804688 29.609375 -62.046875 C 25.703125 -57.296875 23.75 -50.5625 23.75 -41.84375 C 23.75 -32.90625 25.710938 -26.113281 29.640625 -21.46875 C 33.578125 -16.820312 38.722656 -14.5 45.078125 -14.5 C 49.785156 -14.5 53.773438 -15.734375 57.046875 -18.203125 C 60.316406 -20.671875 62.375 -24.140625 63.21875 -28.609375 L 81.125 -28.53125 C 80.488281 -23.40625 78.660156 -18.582031 75.640625 -14.0625 C 72.617188 -9.539062 68.507812 -5.875 63.3125 -3.0625 C 58.125 -0.257812 51.945312 1.140625 44.78125 1.140625 C 37.320312 1.140625 30.65625 -0.546875 24.78125 -3.921875 C 18.914062 -7.296875 14.285156 -12.1875 10.890625 -18.59375 C 7.492188 -25 5.796875 -32.75 5.796875 -41.84375 C 5.796875 -50.96875 7.507812 -58.734375 10.9375 -65.140625 C 14.375 -71.546875 19.035156 -76.429688 24.921875 -79.796875 C 30.804688 -83.160156 37.425781 -84.84375 44.78125 -84.84375 C 51.238281 -84.84375 57.0625 -83.648438 62.25 -81.265625 C 67.445312 -78.878906 71.695312 -75.414062 75 -70.875 C 78.3125 -66.34375 80.351562 -60.847656 81.125 -54.390625 Z M 81.125 -54.390625 "/></g></g><g style="fill:#ffffff;fill-opacity:1;"><g transform="translate(418.731326, 451.093123)"><path style="stroke:none" d="M 47.203125 -26.71875 L 47.203125 -62.765625 L 64.609375 -62.765625 L 64.609375 0 L 47.890625 0 L 47.890625 -11.40625 L 47.234375 -11.40625 C 45.816406 -7.726562 43.46875 -4.769531 40.1875 -2.53125 C 36.90625 -0.300781 32.910156 0.8125 28.203125 0.8125 C 21.878906 0.8125 16.757812 -1.289062 12.84375 -5.5 C 8.9375 -9.707031 6.972656 -15.472656 6.953125 -22.796875 L 6.953125 -62.765625 L 24.359375 -62.765625 L 24.359375 -25.90625 C 24.378906 -22.195312 25.367188 -19.265625 27.328125 -17.109375 C 29.296875 -14.960938 31.925781 -13.890625 35.21875 -13.890625 C 38.351562 -13.890625 41.140625 -14.976562 43.578125 -17.15625 C 46.015625 -19.34375 47.222656 -22.53125 47.203125 -26.71875 Z M 47.203125 -26.71875 "/></g></g><g style="fill:#ffffff;fill-opacity:1;"><g transform="translate(490.280104, 451.093123)"><path style="stroke:none" d="M 7.28125 0 L 7.28125 -83.6875 L 24.6875 -83.6875 L 24.6875 -52.234375 L 25.21875 -52.234375 C 26.007812 -53.941406 27.125 -55.664062 28.5625 -57.40625 C 30.007812 -59.15625 31.914062 -60.625 34.28125 -61.8125 C 36.65625 -63 39.585938 -63.59375 43.078125 -63.59375 C 47.679688 -63.59375 51.898438 -62.398438 55.734375 -60.015625 C 59.578125 -57.628906 62.660156 -54.046875 64.984375 -49.265625 C 67.316406 -44.484375 68.484375 -38.492188 68.484375 -31.296875 C 68.484375 -24.296875 67.351562 -18.390625 65.09375 -13.578125 C 62.832031 -8.773438 59.78125 -5.140625 55.9375 -2.671875 C 52.101562 -0.210938 47.800781 1.015625 43.03125 1.015625 C 39.65625 1.015625 36.785156 0.457031 34.421875 -0.65625 C 32.066406 -1.769531 30.144531 -3.175781 28.65625 -4.875 C 27.175781 -6.582031 26.03125 -8.304688 25.21875 -10.046875 L 24.4375 -10.046875 L 24.4375 0 Z M 24.3125 -31.390625 C 24.3125 -25.796875 25.460938 -21.300781 27.765625 -17.90625 C 30.066406 -14.519531 33.316406 -12.828125 37.515625 -12.828125 C 41.796875 -12.828125 45.066406 -14.550781 47.328125 -18 C 49.585938 -21.445312 50.71875 -25.910156 50.71875 -31.390625 C 50.71875 -36.835938 49.59375 -41.253906 47.34375 -44.640625 C 45.09375 -48.035156 41.816406 -49.734375 37.515625 -49.734375 C 33.296875 -49.734375 30.039062 -48.078125 27.75 -44.765625 C 25.457031 -41.453125 24.3125 -36.992188 24.3125 -31.390625 Z M 24.3125 -31.390625 "/></g></g><g style="fill:#ffffff;fill-opacity:1;"><g transform="translate(563.381617, 451.093123)"><path style="stroke:none" d="M 35.546875 1.21875 C 29.117188 1.21875 23.578125 -0.09375 18.921875 -2.71875 C 14.265625 -5.34375 10.679688 -9.070312 8.171875 -13.90625 C 5.660156 -18.75 4.40625 -24.476562 4.40625 -31.09375 C 4.40625 -37.550781 5.660156 -43.21875 8.171875 -48.09375 C 10.679688 -52.976562 14.21875 -56.78125 18.78125 -59.5 C 23.34375 -62.226562 28.703125 -63.59375 34.859375 -63.59375 C 40.390625 -63.59375 45.378906 -62.421875 49.828125 -60.078125 C 54.285156 -57.734375 57.820312 -54.195312 60.4375 -49.46875 C 63.050781 -44.738281 64.359375 -38.820312 64.359375 -31.71875 L 64.359375 -26.9375 L 21.625 -26.9375 L 21.625 -26.890625 C 21.625 -22.203125 22.898438 -18.507812 25.453125 -15.8125 C 28.015625 -13.113281 31.476562 -11.765625 35.84375 -11.765625 C 38.757812 -11.765625 41.28125 -12.378906 43.40625 -13.609375 C 45.53125 -14.835938 47.023438 -16.648438 47.890625 -19.046875 L 64 -17.984375 C 62.769531 -12.148438 59.660156 -7.488281 54.671875 -4 C 49.691406 -0.519531 43.316406 1.21875 35.546875 1.21875 Z M 21.625 -37.71875 L 47.984375 -37.71875 C 47.953125 -41.445312 46.75 -44.523438 44.375 -46.953125 C 42.007812 -49.378906 38.929688 -50.59375 35.140625 -50.59375 C 31.273438 -50.59375 28.101562 -49.335938 25.625 -46.828125 C 23.144531 -44.328125 21.8125 -41.289062 21.625 -37.71875 Z M 21.625 -37.71875 "/></g></g><g style="fill:#ffffff;fill-opacity:1;"><g transform="translate(632.151794, 451.093123)"><path style="stroke:none" d="M 24.359375 -36.28125 L 24.359375 0 L 6.953125 0 L 6.953125 -62.765625 L 23.53125 -62.765625 L 23.53125 -51.703125 L 24.28125 -51.703125 C 25.695312 -55.347656 28.03125 -58.238281 31.28125 -60.375 C 34.539062 -62.519531 38.5 -63.59375 43.15625 -63.59375 C 49.695312 -63.59375 54.941406 -61.484375 58.890625 -57.265625 C 62.835938 -53.054688 64.8125 -47.289062 64.8125 -39.96875 L 64.8125 0 L 47.40625 0 L 47.40625 -36.859375 C 47.425781 -40.703125 46.441406 -43.707031 44.453125 -45.875 C 42.472656 -48.039062 39.738281 -49.125 36.25 -49.125 C 32.726562 -49.125 29.867188 -48 27.671875 -45.75 C 25.484375 -43.5 24.378906 -40.34375 24.359375 -36.28125 Z M 24.359375 -36.28125 "/></g></g><g style="fill:#ffffff;fill-opacity:1;"><g transform="translate(703.700572, 451.093123)"><path style="stroke:none" d="M 40.328125 -62.765625 L 40.328125 -49.6875 L 28.53125 -49.6875 L 28.53125 -19.28125 C 28.53125 -16.882812 29.070312 -15.265625 30.15625 -14.421875 C 31.25 -13.578125 32.664062 -13.15625 34.40625 -13.15625 C 35.226562 -13.15625 36.046875 -13.226562 36.859375 -13.375 C 37.679688 -13.53125 38.304688 -13.648438 38.734375 -13.734375 L 41.484375 -0.78125 C 40.609375 -0.507812 39.378906 -0.191406 37.796875 0.171875 C 36.222656 0.546875 34.300781 0.773438 32.03125 0.859375 C 25.71875 1.128906 20.644531 -0.238281 16.8125 -3.25 C 12.988281 -6.257812 11.085938 -10.84375 11.109375 -17 L 11.109375 -49.6875 L 2.53125 -49.6875 L 2.53125 -62.765625 L 11.109375 -62.765625 L 11.109375 -77.8125 L 28.53125 -77.8125 L 28.53125 -62.765625 Z M 40.328125 -62.765625 "/></g></g></g></svg>